<svg width="24" height="24" viewBox="0 0 24 24" fill="none" xmlns="http://www.w3.org/2000/svg">
<path d="M8.615 11.5L8.615 12.52L13.527 12.52L11.427 14.62L12.115 15.308L15.404 12.019L12.115 8.711L11.427 9.4L13.527 11.5L8.615 11.5ZM3 12.003C3 10.759 3.236 9.589 3.708 8.493C4.18067 7.39767 4.822 6.44467 5.632 5.634C6.442 4.82333 7.394 4.18167 8.488 3.709C9.582 3.23633 10.7517 3 11.997 3C13.2423 3 14.4123 3.23633 15.507 3.709C16.6023 4.181 17.5553 4.82133 18.366 5.63C19.1767 6.43867 19.8183 7.391 20.291 8.487C20.7637 9.583 21 10.753 21 11.997C21 13.241 20.7637 14.411 20.291 15.507C19.819 16.6023 19.1783 17.5553 18.369 18.366C17.5597 19.1767 16.6073 19.8183 15.512 20.291C14.4167 20.7637 13.247 21 12.003 21C10.759 21 9.589 20.764 8.493 20.292C7.397 19.82 6.444 19.1787 5.634 18.368C4.824 17.5573 4.18233 16.6053 3.709 15.512C3.23567 14.4187 2.99933 13.249 3 12.003ZM4 12C4 14.2333 4.775 16.125 6.325 17.675C7.875 19.225 9.76667 20 12 20C14.2333 20 16.125 19.225 17.675 17.675C19.225 16.125 20 14.2333 20 12C20 9.76667 19.225 7.875 17.675 6.325C16.125 4.775 14.2333 4 12 4C9.76667 4 7.875 4.775 6.325 6.325C4.775 7.875 4 9.76667 4 12Z" fill="white"/>
</svg>
