<svg width="24" height="24" viewBox="0 0 24 24" fill="none" xmlns="http://www.w3.org/2000/svg">
<path d="M15.385 12.5L15.385 11.48L10.473 11.48L12.573 9.38L11.885 8.692L8.596 11.981L11.885 15.289L12.573 14.6L10.473 12.5L15.385 12.5ZM21 11.997C21 13.241 20.764 14.411 20.292 15.507C19.8193 16.6023 19.178 17.5553 18.368 18.366C17.558 19.1767 16.606 19.8183 15.512 20.291C14.418 20.7637 13.2483 21 12.003 21C10.7577 21 9.58767 20.7637 8.493 20.291C7.39767 19.819 6.44467 19.1787 5.634 18.37C4.82333 17.5613 4.18167 16.609 3.709 15.513C3.23633 14.417 3 13.247 3 12.003C3 10.759 3.23633 9.589 3.709 8.493C4.181 7.39767 4.82167 6.44467 5.631 5.634C6.44033 4.82333 7.39267 4.18167 8.488 3.709C9.58333 3.23633 10.753 3 11.997 3C13.241 3 14.411 3.236 15.507 3.708C16.603 4.18 17.556 4.82133 18.366 5.632C19.176 6.44267 19.8177 7.39467 20.291 8.488C20.7643 9.58133 21.0007 10.751 21 11.997ZM20 12C20 9.76667 19.225 7.875 17.675 6.325C16.125 4.775 14.2333 4 12 4C9.76667 4 7.875 4.775 6.325 6.325C4.775 7.875 4 9.76667 4 12C4 14.2333 4.775 16.125 6.325 17.675C7.875 19.225 9.76667 20 12 20C14.2333 20 16.125 19.225 17.675 17.675C19.225 16.125 20 14.2333 20 12Z" fill="white"/>
</svg>
