<svg width="80" height="26" viewBox="0 0 80 26" fill="none" xmlns="http://www.w3.org/2000/svg">
<path d="M14.4923 4.54995C12.0557 2.57885 8.61111 2.47048 6.13023 4.25526C3.76712 5.95488 2.78627 9.00691 3.60291 11.7537C4.43005 14.5382 6.98723 16.616 9.94305 16.6613C13.1477 16.7105 16.0488 14.359 16.7255 11.0377H9.92094V8.04652H19.5912C20.2962 11.5757 19.0267 15.2061 16.2826 17.4619C12.2874 20.7467 7.44891 19.2417 7.1625 19.1472C3.00633 17.7737 1.44548 14.0671 1.20165 13.46C0.971643 12.8866 -0.458719 9.13905 1.58094 5.2245C1.86956 4.67049 3.72731 1.24691 7.87188 0.253894C12.6738 -0.896698 16.3026 2.23274 16.6343 2.52854C15.9205 3.20253 15.2067 3.87652 14.4929 4.55051L14.4923 4.54995Z" fill="#4285F6"/>
<path d="M31.9674 8.24326C30.4121 6.72499 28.4598 6.54419 27.5768 6.54419C27.025 6.54419 24.8399 6.61441 23.0718 8.345C21.2516 10.1265 21.1803 12.3889 21.1698 13.0673C21.1598 13.7386 21.1609 15.8744 22.7981 17.6935C23.0701 17.9959 24.7001 19.747 27.3573 19.7995C29.6264 19.8437 31.6246 18.6296 32.726 16.9769C33.7085 15.5023 33.7522 14.0145 33.7644 13.2763C33.7776 12.4475 33.8169 10.0479 31.9674 8.24326ZM27.474 17.8477C25.2375 17.8444 23.5965 15.3188 23.5843 13.1154C23.5716 10.8756 25.238 8.33836 27.4601 8.3273C29.7077 8.31625 31.4129 10.8961 31.378 13.1718C31.3443 15.3558 29.6994 17.8505 27.474 17.8477Z" fill="#EC4235"/>
<path d="M46.1217 8.24326C44.5664 6.72499 42.6141 6.54419 41.7311 6.54419C41.1793 6.54419 38.9943 6.61441 37.2261 8.345C35.4059 10.1265 35.3346 12.3889 35.3241 13.0673C35.3141 13.7386 35.3152 15.8744 36.9524 17.6935C37.2244 17.9959 38.8544 19.747 41.5116 19.7995C43.7808 19.8437 45.7789 18.6296 46.8803 16.9769C47.8628 15.5023 47.9065 14.0145 47.9187 13.2763C47.932 12.4475 47.9712 10.0479 46.1217 8.24326ZM41.6283 17.8477C39.3918 17.8444 37.7508 15.3188 37.7386 13.1154C37.7259 10.8756 39.3924 8.33836 41.6145 8.3273C43.862 8.31625 45.5672 10.8961 45.5323 13.1718C45.4986 15.3558 43.8537 17.8505 41.6283 17.8477Z" fill="#F2B401"/>
<path d="M59.5252 6.89537V8.83661C59.2985 8.45013 58.8158 7.75071 57.945 7.23209C56.7983 6.5487 55.6803 6.5968 55.123 6.62831C53.1397 6.74055 51.8072 7.88119 51.444 8.21515C49.5492 9.95513 49.4402 12.31 49.422 12.9193C49.4032 13.5396 49.3269 16.0597 51.2892 17.8899C51.7138 18.2857 53.5693 19.8952 56.0497 19.4065C57.9583 19.0305 59.0259 17.6504 59.2935 17.2828C59.2952 17.8224 59.277 18.3996 59.23 19.01C59.1979 19.4286 59.1548 19.8289 59.1039 20.2104C58.9867 20.9203 58.7196 21.3881 58.4719 21.6955C57.2251 23.242 54.2903 23.4349 51.1841 22.1168C50.9701 22.6852 50.7556 23.2541 50.5416 23.8225C53.817 25.7781 57.6127 25.5199 59.7569 23.4333C61.3216 21.9095 61.5461 19.8598 61.5892 19.0836C61.6213 15.0208 61.6528 10.9581 61.6848 6.89537H59.5252ZM58.4454 16.4473C58.206 16.7359 57.898 17.0141 57.5027 17.2407C57.2406 17.3911 55.8589 18.0502 54.3434 17.4403C53.1878 16.9754 52.6393 16.0481 52.448 15.7241C52.2291 15.3537 52.1202 15.0286 52.0898 14.934C51.9432 14.4779 51.8841 13.9963 51.9211 13.3859C52.0162 11.8322 52.087 10.6662 53.0164 9.68919C53.0745 9.62837 54.4512 8.22786 56.3549 8.50985C56.6363 8.55131 57.5436 8.69839 58.2657 9.4343C58.9369 10.1182 59.2266 10.9177 59.236 11.8809C59.2432 12.6273 59.2499 13.3737 59.2565 14.1196C59.2642 14.9661 58.9867 15.7966 58.4454 16.4473Z" fill="#4285F6"/>
<path d="M66.0965 0H63.1689V19.0829H66.0965V0Z" fill="#289748"/>
<path d="M72.4085 16.303C71.6394 15.9254 71.1584 15.3006 70.8708 14.7936C73.7471 13.5534 76.6233 12.3127 79.5 11.0725C79.4193 10.8022 78.4517 7.73134 75.4273 6.79693C72.6805 5.94767 69.676 7.30062 68.3612 9.60513C67.2648 11.5259 67.6972 13.4865 67.8133 13.9758C68.3463 16.225 70.1366 18.1829 72.5417 18.8099C75.0818 19.4711 77.8197 18.5218 79.4823 16.3981C78.9079 15.8939 78.3334 15.389 77.7584 14.8848C76.1306 16.5231 73.9732 17.0715 72.4085 16.303ZM70.6956 10.3355C71.0859 9.80749 71.5421 9.51445 71.7765 9.36627C72.1763 9.1147 73.0974 8.53415 74.2624 8.69228C75.7574 8.89575 76.558 10.1674 76.6774 10.3632C74.468 11.3606 72.2586 12.3575 70.0492 13.3544C69.9851 12.948 69.812 11.5292 70.6956 10.3355Z" fill="#EC4235"/>
</svg>
