<svg width="78" height="22" viewBox="0 0 78 22" fill="none" xmlns="http://www.w3.org/2000/svg">
<g clip-path="url(#clip0_2_27136)">
<path d="M10.5425 21.8944C4.61975 21.8844 0.221011 17.6154 0.0101028 11.9795C-0.0621261 10.0461 0.234012 8.18559 1.06609 6.42918C4.14449 -0.0756491 13.0445 -1.38261 17.9518 3.93654C18.18 4.18338 18.2176 4.32178 17.959 4.56006C17.4144 5.06372 16.8756 5.57595 16.3801 6.12527C16.0464 6.49482 15.8485 6.48625 15.4786 6.13811C14.0138 4.76124 12.2832 3.95224 10.2262 3.95652C6.59738 3.96508 3.78623 6.63892 3.47998 10.36C3.38608 11.5072 3.44675 12.6444 3.81512 13.7444C4.6342 16.1929 6.26657 17.8408 8.85526 18.3402C11.4902 18.8481 13.8188 18.169 15.6506 16.1529C15.9005 15.879 16.0117 15.8818 16.2428 16.1401C16.786 16.745 17.3393 17.3414 17.9214 17.9079C18.2147 18.1932 18.1829 18.3545 17.9084 18.6455C15.834 20.8471 13.2497 21.8487 10.5425 21.8915V21.8944Z" fill="#1A343E"/>
<path d="M69.1924 7.92168C70.1805 7.16975 71.3072 6.85157 72.5424 6.853C75.6193 6.85585 77.9249 9.01889 77.974 12.0666C78.0245 15.2041 77.9783 18.3417 77.9956 21.4792C77.9985 21.8959 77.8599 21.9957 77.464 21.9829C76.6464 21.9558 75.8259 21.9444 75.0097 21.9858C74.5243 22.01 74.4044 21.8516 74.4073 21.3893C74.4275 18.7269 74.4203 16.0645 74.4145 13.4021C74.4145 12.7372 74.4362 12.0694 74.2267 11.4231C73.9479 10.5641 73.3889 10.1389 72.4745 10.0961C70.7511 10.0134 69.4553 11.0492 69.1635 12.7315C69.032 13.4877 69.0783 14.2482 69.0768 15.0086C69.071 17.1474 69.0624 19.2877 69.084 21.4264C69.0884 21.8573 68.98 22.0057 68.5264 21.9858C67.7102 21.9487 66.8883 21.9387 66.0735 21.9886C65.552 22.02 65.4943 21.8017 65.4957 21.3751C65.5087 18.2375 65.5029 15.1 65.5029 11.9624C65.5029 8.22987 65.5217 4.49876 65.4856 0.76622C65.4798 0.11274 65.6748 -0.0370748 66.2873 0.00715632C67.0299 0.0613751 67.7796 0.047107 68.5235 0.0100099C68.9728 -0.012819 69.0898 0.128435 69.0855 0.565039C69.0638 2.77517 69.0725 4.98673 69.0797 7.19686C69.0797 7.42229 68.9959 7.66628 69.1924 7.92168Z" fill="#1A343E"/>
<path d="M36.2647 20.8985C34.8635 21.9073 33.3351 22.1299 31.7518 21.9173C28.8482 21.5277 27.135 19.7442 26.7276 16.7679C26.6597 16.2757 26.6236 15.7748 26.6221 15.2769C26.612 12.7343 26.6265 10.1932 26.6091 7.65058C26.6062 7.2311 26.7016 7.05417 27.1639 7.07272C27.98 7.10697 28.8006 7.10982 29.6167 7.07272C30.105 7.04989 30.2134 7.22254 30.209 7.67912C30.1874 10.0548 30.1989 12.4304 30.1989 14.806C30.1989 15.0914 30.1931 15.3768 30.2105 15.6607C30.3376 17.6711 31.3907 18.7041 33.1588 18.5586C35.1423 18.3945 36.4669 16.8735 36.4005 15.0572C36.308 12.5431 36.3499 10.0234 36.3254 7.5079C36.3225 7.21826 36.3961 7.07272 36.7255 7.07843C37.6399 7.09412 38.5543 7.0984 39.4673 7.07843C39.8357 7.06987 39.9007 7.2311 39.8993 7.54785C39.892 12.205 39.8891 16.8606 39.9021 21.5178C39.9021 21.9101 39.762 21.9972 39.4009 21.9843C38.7523 21.9601 38.1022 21.9772 37.4521 21.9772C36.7404 21.9772 36.3441 21.6176 36.2632 20.8985H36.2647Z" fill="#1A343E"/>
<path d="M57.942 21.893C54.0908 21.9116 50.9951 19.3618 50.3205 15.6165C49.6531 11.911 51.6249 8.35115 55.0659 7.21969C58.0706 6.23091 60.7994 6.81875 63.209 8.86195C63.5817 9.1787 63.6221 9.40413 63.2263 9.74657C62.6846 10.216 62.1732 10.7254 61.6965 11.2576C61.3917 11.5971 61.1837 11.5672 60.8919 11.2675C60.0584 10.41 59.0139 10.0676 57.8265 10.089C55.9832 10.1218 54.5314 11.0664 53.9319 12.6359C53.2717 14.3652 53.7297 16.4169 55.0312 17.5584C56.2895 18.6613 58.2772 18.8996 59.833 18.1319C60.223 17.9393 60.616 17.7282 60.8688 17.3772C61.188 16.9348 61.422 16.9191 61.7918 17.3401C62.2801 17.8951 62.8059 18.4259 63.3737 18.901C63.8273 19.2805 63.703 19.5017 63.3361 19.8384C61.9479 21.1125 59.9688 21.883 57.9406 21.893H57.942Z" fill="#1A343E"/>
<path d="M43.3792 16.2714C43.3792 14.5849 43.3662 12.8998 43.3879 11.2133C43.3937 10.7653 43.2839 10.5641 42.7913 10.6055C42.3146 10.6454 41.8292 10.5941 41.3496 10.6198C40.9162 10.644 40.6952 10.5641 40.7255 10.0505C40.7746 9.22291 40.7573 8.38822 40.7313 7.55782C40.7198 7.17686 40.8555 7.05844 41.2268 7.07556C41.731 7.09981 42.238 7.0513 42.7407 7.08983C43.2391 7.12835 43.4052 6.9714 43.3922 6.46346C43.3576 5.11084 43.4038 3.75679 43.3691 2.40418C43.3561 1.89481 43.5251 1.74927 44.0235 1.7721C44.8151 1.8092 45.6111 1.80492 46.4027 1.7721C46.8419 1.75498 46.9834 1.88339 46.9748 2.32856C46.9473 3.70543 46.9878 5.08373 46.9531 6.45917C46.9401 6.97283 47.1163 7.12121 47.6104 7.08697C48.1362 7.04987 48.6678 7.09125 49.1965 7.07413C49.5143 7.06272 49.6155 7.18685 49.6097 7.49076C49.5967 8.3925 49.5895 9.29568 49.6126 10.1974C49.6227 10.5712 49.4479 10.6269 49.133 10.6155C48.6534 10.5984 48.1666 10.6526 47.6913 10.6012C47.06 10.5313 46.9473 10.7967 46.9517 11.3646C46.9777 14.6177 46.9343 17.8708 46.9863 21.1239C46.9979 21.8787 46.7653 22.0457 46.0705 21.9857C45.3785 21.9258 44.675 21.9444 43.9802 21.9829C43.5121 22.0086 43.3604 21.8744 43.3691 21.3965C43.3966 19.6871 43.3807 17.9778 43.3807 16.2671L43.3792 16.2714Z" fill="#1A343E"/>
<path d="M20.3469 10.9993C20.3469 7.55495 20.3599 4.11063 20.3324 0.666311C20.3281 0.122696 20.4783 -0.0228392 21.0128 0.00855067C21.803 0.0556354 22.6004 0.0385137 23.3935 0.0128311C23.7907 -1.02008e-05 23.9352 0.104147 23.9338 0.522203C23.9222 7.50644 23.9222 14.4893 23.9338 21.4735C23.9338 21.8887 23.7965 21.9986 23.3964 21.9857C22.6033 21.9586 21.8073 21.9443 21.0157 21.99C20.4856 22.02 20.3281 21.8816 20.3324 21.3337C20.3599 17.8893 20.3469 14.445 20.3469 11.0007V10.9993Z" fill="#1A343E"/>
<path d="M55.18 14.3452C55.1945 12.9412 56.3443 11.8325 57.773 11.8454C59.1945 11.8568 60.34 13.004 60.3227 14.398C60.3054 15.7862 59.1208 16.9305 57.721 16.9106C56.301 16.8906 55.1656 15.7449 55.18 14.3466V14.3452Z" fill="#FE4032"/>
</g>
<defs>
<clipPath id="clip0_2_27136">
<rect width="78" height="22" fill="white"/>
</clipPath>
</defs>
</svg>
